<svg xmlns="http://www.w3.org/2000/svg" width="134" height="60" viewBox="0 0 134 60">
  <g id="Group_3353" data-name="Group 3353" transform="translate(0 -53)">
    <g id="Group_3352" data-name="Group 3352">
      <rect id="Rectangle" width="134" height="60" transform="translate(0 53)" fill="#8ca31f"/>
    </g>
    <g id="logo-w" transform="translate(13.704 69.348)">
      <path id="Fill-1" d="M17.956,8.973v6.072h4.8v3.036h-4.8v9.258H14.619V5.937h8.91V8.973Z" transform="translate(-0.233 -0.245)" fill="#fff"/>
      <path id="Fill-2" d="M33.839,12.25a10.33,10.33,0,0,0-.074-1.262,3.548,3.548,0,0,0-.283-1.052,1.6,1.6,0,0,0-.626-.706,2.028,2.028,0,0,0-1.072-.255H29.726v6.553h2.056a2.028,2.028,0,0,0,1.072-.255,1.594,1.594,0,0,0,.626-.706,3.544,3.544,0,0,0,.283-1.052,10.321,10.321,0,0,0,.074-1.262Zm.536,15.09L31.6,18.562H29.726v8.777H26.389V5.937h5.364q2.92,0,4.172,1.488t1.252,4.825a10.1,10.1,0,0,1-.507,3.4A3.977,3.977,0,0,1,34.7,17.841l3.158,9.5Z" transform="translate(-0.382 -0.245)" fill="#fff"/>
      <path id="Fill-4" d="M40.815,27.339V5.937h8.91V8.973H44.153v6.072h4.8v3.036h-4.8V24.3h5.572v3.036Z" transform="translate(-0.565 -0.245)" fill="#fff"/>
      <path id="Fill-6" d="M63.007,21.416a11.837,11.837,0,0,1-.283,2.795,3.951,3.951,0,0,1-1.088,1.925,4.909,4.909,0,0,1-1.683,1.022,6.929,6.929,0,0,1-2.459.391,5.544,5.544,0,0,1-4.112-1.413A4.186,4.186,0,0,1,52.31,24.3a10.444,10.444,0,0,1-.3-2.765h3.337a7.014,7.014,0,0,0,.119,1.429,2.2,2.2,0,0,0,.477.977,1.964,1.964,0,0,0,.611.406,2.323,2.323,0,0,0,.939.165,1.99,1.99,0,0,0,1.609-.6,2.157,2.157,0,0,0,.447-.946,7.065,7.065,0,0,0,.119-1.429,11.123,11.123,0,0,0-.075-1.412,2.468,2.468,0,0,0-.3-.947,2.093,2.093,0,0,0-.611-.646,4.761,4.761,0,0,0-1.013-.511l-2.533-1.052a6.291,6.291,0,0,1-1.37-.752,3.234,3.234,0,0,1-.909-1.037,4.908,4.908,0,0,1-.507-1.488,11.561,11.561,0,0,1-.164-2.1,7.387,7.387,0,0,1,.432-2.6,4.867,4.867,0,0,1,1.3-1.939A5.206,5.206,0,0,1,55.513,6.1a5.707,5.707,0,0,1,2.041-.346,5.279,5.279,0,0,1,3.814,1.292,4.359,4.359,0,0,1,1.162,1.969,9.93,9.93,0,0,1,.327,2.69H59.521a8.494,8.494,0,0,0-.089-1.293,2.119,2.119,0,0,0-.417-.992,1.747,1.747,0,0,0-1.49-.631,1.953,1.953,0,0,0-.849.165,1.826,1.826,0,0,0-.581.436,3.2,3.2,0,0,0-.566,2.1,8.661,8.661,0,0,0,.06,1.112,1.927,1.927,0,0,0,.253.767,1.89,1.89,0,0,0,.537.556,4.009,4.009,0,0,0,.909.451l2.5,1.022a6.878,6.878,0,0,1,1.579.872,3.477,3.477,0,0,1,.983,1.172,5.4,5.4,0,0,1,.506,1.653,15.364,15.364,0,0,1,.149,2.315" transform="translate(-0.706 -0.243)" fill="#fff"/>
      <path id="Fill-8" d="M73.584,27.339V17.991H69.443v9.348H66.105V5.937h3.338v9.018h4.141V5.937h3.338v21.4Z" transform="translate(-0.885 -0.245)" fill="#fff"/>
      <path id="Fill-10" d="M102.267,5.541a6.163,6.163,0,0,0-1.388.163,6.244,6.244,0,0,0-12.406,0,6.155,6.155,0,0,0-1.388-.163,6.317,6.317,0,0,0-.506,12.6L88.1,27.171h5.536L93.8,18.35a2.039,2.039,0,0,1-1.571-1.99V14.486l.169-5.92h.369l.169,5.92h.7l.169-5.92h.369l.169,5.92h.684l.169-5.92h.368l.169,5.92h.684l.168-5.92h.369l.168,5.92V16.36a2.04,2.04,0,0,1-1.57,1.99l.16,8.821h5.536l1.523-9.026a6.317,6.317,0,0,0-.506-12.6" transform="translate(-1.071 -0.172)" fill="#fff"/>
      <path id="Fill-12" d="M6.976,15.082c0,.535.309.764,1.245.764h2.045V14.521H7.851c-.538,0-.875.158-.875.561Zm0-2.688c0,.64.494.7,1.235.7h2.054V11.772h-2.5c-.493,0-.785.237-.785.623ZM6.259,23.238a.831.831,0,0,0-.939.75l-.122.976H6.912L7,23.987c.037-.439-.152-.75-.736-.75ZM8.557,8.01c.079.333.22.614.582.614s.521-.289.521-.623c0-.71-.406-.946-1.349-.912a4.344,4.344,0,0,1,.247.921Zm-3.088,9.7-.153,1.065H4.133l.188-1.065Zm-2.973,0L.049,27.32H10.266v-.813H3.557l.433-2.733a2.115,2.115,0,0,1,2.294-1.861c1.539,0,2.1.709,2.04,1.861l-.063,1.19h2V21.629H5.294l.166-1.248h.876v-.015a.96.96,0,0,1-.743-1.137c.011-.09.032-.244.032-.244h1.4L7,19.308c-.04.416.038,1.036.982,1.036h2.283V18.773H5.729L5.871,17.7h4.395v-.427H5.874V15.889H6.5v-.017a1.515,1.515,0,0,1-.76-1.307,1.228,1.228,0,0,1,.742-1.259,1.666,1.666,0,0,1-.742-1.42c0-1.447,1.1-1.54,1.977-1.54h2.548V9.639a1.282,1.282,0,0,1-1.065.474c-1.492,0-1.376-1.612-1.589-2.646-.053-.255-.142-.4-.423-.4-.345,0-.477.412-.477.719a.668.668,0,0,0,.573.745V9.93a1.413,1.413,0,0,1-1.226-.711,2.985,2.985,0,0,1-.318-1.446c0-.951.187-1.875,1.121-2.08H2.5Z" transform="translate(-0.049 -0.242)" fill="#fff"/>
    </g>
  </g>
</svg>
