<?xml version="1.0" encoding="utf-8"?>
<!-- Generator: Adobe Illustrator 28.0.0, SVG Export Plug-In . SVG Version: 6.00 Build 0)  -->
<svg version="1.1" id="Layer_1" xmlns="http://www.w3.org/2000/svg" xmlns:xlink="http://www.w3.org/1999/xlink" x="0px" y="0px"
	 viewBox="0 0 479 411" style="enable-background:new 0 0 479 411;" xml:space="preserve">
<style type="text/css">
	.st0{fill:#167BE8;}
	.st1{fill:#F59A00;}
	.st2{fill:#FFFFFF;}
</style>
<g>
	<rect y="-0.19" class="st0" width="479" height="411"/>
</g>
<g>
	<polyline class="st1" points="79,174.69 98.45,237.19 145.21,168.46 105.2,192.43 79,174.69 	"/>
	<g>
		<polyline class="st2" points="152.2,229.67 163.95,229.67 170.41,187.2 180.11,187.2 181.46,178.21 149.44,178.21 148.03,187.2 
			158.66,187.2 152.2,229.67 		"/>
		<path class="st2" d="M296.6,210.17c-1.12,7.11-5.23,11.34-11.16,11.34c-3.17,0-4.93-0.88-4.93-0.88l3.17-21.21
			c0,0,1.94-0.76,4.82-0.76C293.96,198.66,297.9,201.89,296.6,210.17 M289.96,189.61c-6.11,0-12.57,1.06-16.51,2.7l-7.58,50.23
			h11.34l1.94-13.04c0,0,2.58,0.88,6.58,0.88c12.4,0,20.27-7.23,22.27-20.5C309.88,197.66,303.77,189.61,289.96,189.61z"/>
		<path class="st2" d="M224.17,210.17c-1.12,7.11-5.23,11.34-11.16,11.34c-3.17,0-4.93-0.88-4.93-0.88l3.17-21.21
			c0,0,1.94-0.76,4.82-0.76C221.46,198.66,225.46,201.89,224.17,210.17 M217.47,189.61c-6.11,0-12.57,1.06-16.51,2.7l-7.58,50.23
			h11.34l1.94-13.04c0,0,2.58,0.88,6.58,0.88c12.4,0,20.27-7.23,22.27-20.5C237.39,197.66,231.28,189.61,217.47,189.61z"/>
		<path class="st2" d="M381.38,182.85l-5.4,35.72c-1,6.58,1.88,11.81,10.46,11.81c2.76,0,6.46-0.47,7.7-0.88l1.41-9.46
			c-0.94,0.18-2.76,0.23-3.41,0.23c-3.58,0-4.88-1.64-4.41-4.41l2.53-16.86h8.46l1.29-8.46h-8.46l1.82-11.81L381.38,182.85"/>
		<path class="st2" d="M235.68,228.97c0,0,5.99,1.64,13.39,1.64c9.58,0,15.98-3.64,17.04-10.63c0.82-5.11-1.06-9.05-9.52-13.81
			c-4.23-2.41-6.4-3.29-6.11-5.23c0.29-2.11,3.7-2.41,5.64-2.41c4.88,0,10.46,1.23,10.46,1.23l1.47-8.81c0,0-4.99-1.35-12.34-1.35
			c-9.11,0-15.45,3.64-16.45,10.28c-0.76,5.11,1.12,9.4,9.34,13.92c4.11,2.29,6.46,3.47,6.11,5.52c-0.23,1.41-2,2.29-5.82,2.29
			c-5.82,0-11.34-1.41-11.34-1.41L235.68,228.97"/>
		<polyline class="st2" points="177.05,229.67 188.39,229.67 194.26,190.55 182.93,190.55 177.05,229.67 		"/>
		<polyline class="st2" points="183.45,187.2 194.79,187.2 196.14,178.21 184.81,178.21 183.45,187.2 		"/>
		<path class="st2" d="M377.91,189.78c-4.88-0.47-13.28-0.18-20.97,3.29l-5.52,36.6h11.34l4.58-30.2c0,0,3.29-1.35,9.22-0.65
			L377.91,189.78"/>
		<path class="st2" d="M338.78,210.29c-1.41,9.28-6.05,11.28-9.69,11.28c-4.58,0-7.64-3.7-6.4-11.63
			c1.41-9.28,6.05-11.28,9.69-11.28C337.02,198.66,339.96,202.36,338.78,210.29 M333.61,189.61c-12.98,0-20.27,6.93-22.32,20.62
			c-1.41,9.52,2.76,20.39,16.51,20.39c12.98,0,20.27-6.93,22.32-20.62C351.53,200.48,347.01,189.61,333.61,189.61z"/>
	</g>
</g>
</svg>
